# xmcd CD database file
#
# Track frame offsets:
#	150
#	10672
#	21639
#	31661
#	42340
#	51990
#	64324
#	72968
#	82518
#	92759
#	102685
#	113229
#	121275
#	131506
#	141264
#	149596
#	158791
#	167477
#	176448
#	185386
#
# Disc length: 2587 seconds
#
# Revision: 0
# Processed by: cddbd v1.5.2PL0 Copyright (c) Steve Scherf et al.
# Submitted via: jetAudio 7
#
DISCID=140a1914
DTITLE=Fats Domino - The Fat Man [CD 2)
DYEAR=1900
DGENRE=Blues
TTITLE0=Don´t You Know
TTITLE1=Ain´t It A Shame
TTITLE2=La La
TTITLE3=All By Myself
TTITLE4=I Can´t Go On (Rosalie)
TTITLE5=Bo Weevil
TTITLE6=I´m In Love Again
TTITLE7=My Blue Heaven
TTITLE8=When My Dreamboat Comes Home
TTITLE9=So-Long
TTITLE10=Blueberry Hill
TTITLE11=Honey Chile
TTITLE12=Blue Monday
TTITLE13=I´m Walking
TTITLE14=Valley Of Tears
TTITLE15=It´s You I Love
TTITLE16=Wait And See
TTITLE17=I Still Love You
TTITLE18=The Big Beat
TTITLE19=I Want You To Know
EXTD=
EXTT0=
EXTT1=
EXTT2=
EXTT3=
EXTT4=
EXTT5=
EXTT6=
EXTT7=
EXTT8=
EXTT9=
EXTT10=
EXTT11=
EXTT12=
EXTT13=
EXTT14=
EXTT15=
EXTT16=
EXTT17=
EXTT18=
EXTT19=
PLAYORDER=
